<?xml version="1.0" standalone="no"?>
<!DOCTYPE svg PUBLIC "-//W3C//DTD SVG 20010904//EN"
 "http://www.w3.org/TR/2001/REC-SVG-20010904/DTD/svg10.dtd">
<svg version="1.0" xmlns="http://www.w3.org/2000/svg"
 width="100.000000pt" height="100.000000pt" viewBox="0 0 100.000000 100.000000"
 preserveAspectRatio="xMidYMid meet">
<metadata>
Created by potrace 1.14, written by Peter Selinger 2001-2017
</metadata>
<g transform="translate(0.000000,100.000000) scale(0.100000,-0.100000)"
fill="#000000" stroke="none">
<path d="M29 908 c-1 -2 -2 -16 -3 -31 -3 -30 9 -39 67 -51 21 -5 27 -12 28
-34 4 -132 0 -613 -5 -621 -4 -6 -19 -11 -34 -11 -38 0 -56 -14 -58 -44 l-1
-26 149 0 c81 0 148 3 149 8 0 4 2 17 3 29 2 19 -4 24 -33 29 -71 13 -66 -11
-65 339 1 348 -3 329 64 340 36 6 37 8 31 68 -1 6 -289 11 -292 5z"/>
<path d="M380 865 l0 -45 129 0 128 0 1 -347 c0 -192 1 -356 1 -365 1 -15 10
-18 51 -18 l50 0 0 365 0 365 129 0 130 0 -2 43 -2 42 -307 3 -308 2 0 -45z"/>
</g>
</svg>
